<mxfile host="app.diagrams.net" modified="2024-01-16T07:11:30.615Z" agent="Mozilla/5.0 (Windows NT 10.0; Win64; x64; rv:122.0) Gecko/20100101 Firefox/122.0" etag="k-1E_s4d6-aJGi7w7bmJ" version="22.1.18" type="device">
  <diagram name="Sayfa -1" id="nu_xsq3waBW0ze4engWk">
    <mxGraphModel dx="419" dy="210" grid="1" gridSize="10" guides="1" tooltips="1" connect="1" arrows="1" fold="1" page="1" pageScale="1" pageWidth="827" pageHeight="1169" math="0" shadow="0">
      <root>
        <mxCell id="0" />
        <mxCell id="1" parent="0" />
        <mxCell id="pazgyhZPyo7JdbB8Kf8L-1" value="&lt;font face=&quot;Lucida Console&quot;&gt;server.toml&lt;/font&gt;" style="rounded=0;whiteSpace=wrap;html=1;" vertex="1" parent="1">
          <mxGeometry x="240" y="80" width="200" height="30" as="geometry" />
        </mxCell>
        <mxCell id="pazgyhZPyo7JdbB8Kf8L-5" style="edgeStyle=orthogonalEdgeStyle;rounded=0;orthogonalLoop=1;jettySize=auto;html=1;exitX=0.099;exitY=1.009;exitDx=0;exitDy=0;entryX=0;entryY=0.5;entryDx=0;entryDy=0;exitPerimeter=0;" edge="1" parent="1" source="pazgyhZPyo7JdbB8Kf8L-2" target="pazgyhZPyo7JdbB8Kf8L-3">
          <mxGeometry relative="1" as="geometry">
            <Array as="points">
              <mxPoint x="260" y="175" />
            </Array>
          </mxGeometry>
        </mxCell>
        <mxCell id="pazgyhZPyo7JdbB8Kf8L-2" value="&lt;font face=&quot;Lucida Console&quot;&gt;config/&lt;/font&gt;" style="rounded=0;whiteSpace=wrap;html=1;" vertex="1" parent="1">
          <mxGeometry x="240" y="120" width="200" height="30" as="geometry" />
        </mxCell>
        <mxCell id="pazgyhZPyo7JdbB8Kf8L-3" value="&lt;font face=&quot;Lucida Console&quot;&gt;server.properties&lt;/font&gt;" style="rounded=0;whiteSpace=wrap;html=1;" vertex="1" parent="1">
          <mxGeometry x="280" y="160" width="160" height="30" as="geometry" />
        </mxCell>
        <mxCell id="pazgyhZPyo7JdbB8Kf8L-6" value="&lt;font face=&quot;Lucida Console&quot;&gt;Files&lt;/font&gt;" style="rounded=1;whiteSpace=wrap;html=1;fillColor=#e1d5e7;strokeColor=#9673a6;" vertex="1" parent="1">
          <mxGeometry x="200" y="50" width="280" height="20" as="geometry" />
        </mxCell>
      </root>
    </mxGraphModel>
  </diagram>
</mxfile>
